<mxfile host="app.diagrams.net" modified="2023-05-18T06:21:29.148Z" agent="Mozilla/5.0 (Windows NT 10.0; Win64; x64) AppleWebKit/537.36 (KHTML, like Gecko) Chrome/113.0.0.0 Safari/537.36" etag="cMumOTgz62AKlq03oZw0" version="21.3.2" type="github">
  <diagram name="第 1 页" id="-xH5tRlxumv-JMXhsZI_">
    <mxGraphModel dx="2338" dy="1021" grid="0" gridSize="10" guides="1" tooltips="1" connect="1" arrows="1" fold="1" page="0" pageScale="1" pageWidth="827" pageHeight="1169" math="0" shadow="0">
      <root>
        <mxCell id="0" />
        <mxCell id="1" parent="0" />
        <mxCell id="lHDCf4ek-rN3MF-EiJ6S-29" value="" style="rounded=1;whiteSpace=wrap;html=1;dashed=1;dashPattern=12 12;" vertex="1" parent="1">
          <mxGeometry x="181" y="1215" width="1236" height="614" as="geometry" />
        </mxCell>
        <mxCell id="lHDCf4ek-rN3MF-EiJ6S-27" value="" style="rounded=1;whiteSpace=wrap;html=1;dashed=1;" vertex="1" parent="1">
          <mxGeometry x="-185" y="1269" width="266" height="492" as="geometry" />
        </mxCell>
        <mxCell id="7-hsXSYyVSiEAsbIfiTc-1" value="查看" style="rounded=1;whiteSpace=wrap;html=1;fontSize=26;fillColor=#f5f5f5;fontColor=#333333;strokeColor=#666666;" parent="1" vertex="1">
          <mxGeometry x="-29" y="260" width="120" height="60" as="geometry" />
        </mxCell>
        <mxCell id="7-hsXSYyVSiEAsbIfiTc-13" style="edgeStyle=orthogonalEdgeStyle;rounded=0;orthogonalLoop=1;jettySize=auto;html=1;entryX=0.5;entryY=1;entryDx=0;entryDy=0;exitX=0.5;exitY=1;exitDx=0;exitDy=0;curved=1;" parent="1" source="7-hsXSYyVSiEAsbIfiTc-2" target="7-hsXSYyVSiEAsbIfiTc-3" edge="1">
          <mxGeometry relative="1" as="geometry" />
        </mxCell>
        <mxCell id="7-hsXSYyVSiEAsbIfiTc-2" value="编辑" style="rounded=1;whiteSpace=wrap;html=1;fontSize=26;fillColor=#dae8fc;strokeColor=#6c8ebf;" parent="1" vertex="1">
          <mxGeometry x="163" y="260" width="120" height="60" as="geometry" />
        </mxCell>
        <mxCell id="7-hsXSYyVSiEAsbIfiTc-15" style="edgeStyle=orthogonalEdgeStyle;rounded=0;orthogonalLoop=1;jettySize=auto;html=1;entryX=0.579;entryY=0.008;entryDx=0;entryDy=0;entryPerimeter=0;exitX=0.5;exitY=0;exitDx=0;exitDy=0;curved=1;" parent="1" source="7-hsXSYyVSiEAsbIfiTc-3" target="7-hsXSYyVSiEAsbIfiTc-4" edge="1">
          <mxGeometry relative="1" as="geometry" />
        </mxCell>
        <mxCell id="7-hsXSYyVSiEAsbIfiTc-17" style="edgeStyle=orthogonalEdgeStyle;rounded=0;orthogonalLoop=1;jettySize=auto;html=1;entryX=0.5;entryY=0;entryDx=0;entryDy=0;exitX=0.5;exitY=0;exitDx=0;exitDy=0;curved=1;" parent="1" source="7-hsXSYyVSiEAsbIfiTc-3" target="7-hsXSYyVSiEAsbIfiTc-5" edge="1">
          <mxGeometry relative="1" as="geometry">
            <Array as="points">
              <mxPoint x="415" y="204" />
              <mxPoint x="799" y="204" />
            </Array>
          </mxGeometry>
        </mxCell>
        <mxCell id="7-hsXSYyVSiEAsbIfiTc-19" style="edgeStyle=orthogonalEdgeStyle;rounded=0;orthogonalLoop=1;jettySize=auto;html=1;entryX=0.5;entryY=0;entryDx=0;entryDy=0;exitX=0.5;exitY=0;exitDx=0;exitDy=0;curved=1;" parent="1" source="7-hsXSYyVSiEAsbIfiTc-3" target="7-hsXSYyVSiEAsbIfiTc-6" edge="1">
          <mxGeometry relative="1" as="geometry">
            <Array as="points">
              <mxPoint x="415" y="169" />
              <mxPoint x="991" y="169" />
            </Array>
          </mxGeometry>
        </mxCell>
        <mxCell id="7-hsXSYyVSiEAsbIfiTc-3" value="提审" style="rounded=1;whiteSpace=wrap;html=1;fontSize=26;fillColor=#d5e8d4;strokeColor=#82b366;" parent="1" vertex="1">
          <mxGeometry x="355" y="260" width="120" height="60" as="geometry" />
        </mxCell>
        <mxCell id="7-hsXSYyVSiEAsbIfiTc-16" style="edgeStyle=orthogonalEdgeStyle;rounded=0;orthogonalLoop=1;jettySize=auto;html=1;entryX=0.5;entryY=1;entryDx=0;entryDy=0;exitX=0.5;exitY=1;exitDx=0;exitDy=0;curved=1;" parent="1" source="7-hsXSYyVSiEAsbIfiTc-4" target="7-hsXSYyVSiEAsbIfiTc-2" edge="1">
          <mxGeometry relative="1" as="geometry">
            <Array as="points">
              <mxPoint x="607" y="361" />
              <mxPoint x="223" y="361" />
            </Array>
          </mxGeometry>
        </mxCell>
        <mxCell id="7-hsXSYyVSiEAsbIfiTc-4" value="撤审" style="rounded=1;whiteSpace=wrap;html=1;fontSize=26;fillColor=#ffe6cc;strokeColor=#d79b00;" parent="1" vertex="1">
          <mxGeometry x="547" y="260" width="120" height="60" as="geometry" />
        </mxCell>
        <mxCell id="7-hsXSYyVSiEAsbIfiTc-11" style="edgeStyle=orthogonalEdgeStyle;rounded=0;orthogonalLoop=1;jettySize=auto;html=1;entryX=0.5;entryY=0;entryDx=0;entryDy=0;dashed=1;strokeWidth=2;" parent="1" source="7-hsXSYyVSiEAsbIfiTc-5" target="7-hsXSYyVSiEAsbIfiTc-10" edge="1">
          <mxGeometry relative="1" as="geometry" />
        </mxCell>
        <mxCell id="7-hsXSYyVSiEAsbIfiTc-18" style="edgeStyle=orthogonalEdgeStyle;rounded=0;orthogonalLoop=1;jettySize=auto;html=1;entryX=0.5;entryY=1;entryDx=0;entryDy=0;exitX=0.5;exitY=1;exitDx=0;exitDy=0;curved=1;" parent="1" source="7-hsXSYyVSiEAsbIfiTc-5" target="7-hsXSYyVSiEAsbIfiTc-7" edge="1">
          <mxGeometry relative="1" as="geometry" />
        </mxCell>
        <mxCell id="7-hsXSYyVSiEAsbIfiTc-5" value="通过" style="rounded=1;whiteSpace=wrap;html=1;fontSize=26;fillColor=#f8cecc;strokeColor=#b85450;" parent="1" vertex="1">
          <mxGeometry x="739" y="260" width="120" height="60" as="geometry" />
        </mxCell>
        <mxCell id="7-hsXSYyVSiEAsbIfiTc-20" style="edgeStyle=orthogonalEdgeStyle;rounded=0;orthogonalLoop=1;jettySize=auto;html=1;entryX=0.5;entryY=1;entryDx=0;entryDy=0;exitX=0.5;exitY=1;exitDx=0;exitDy=0;curved=1;" parent="1" source="7-hsXSYyVSiEAsbIfiTc-6" target="7-hsXSYyVSiEAsbIfiTc-4" edge="1">
          <mxGeometry relative="1" as="geometry">
            <Array as="points">
              <mxPoint x="991" y="358" />
              <mxPoint x="607" y="358" />
            </Array>
          </mxGeometry>
        </mxCell>
        <mxCell id="7-hsXSYyVSiEAsbIfiTc-21" style="edgeStyle=orthogonalEdgeStyle;rounded=0;orthogonalLoop=1;jettySize=auto;html=1;entryX=0.5;entryY=1;entryDx=0;entryDy=0;exitX=0.5;exitY=1;exitDx=0;exitDy=0;curved=1;" parent="1" source="7-hsXSYyVSiEAsbIfiTc-6" target="7-hsXSYyVSiEAsbIfiTc-7" edge="1">
          <mxGeometry relative="1" as="geometry">
            <Array as="points">
              <mxPoint x="991" y="370" />
              <mxPoint x="1183" y="370" />
            </Array>
          </mxGeometry>
        </mxCell>
        <mxCell id="7-hsXSYyVSiEAsbIfiTc-6" value="拒绝" style="rounded=1;whiteSpace=wrap;html=1;fontSize=26;fillColor=#fff2cc;strokeColor=#d6b656;" parent="1" vertex="1">
          <mxGeometry x="931" y="260" width="120" height="60" as="geometry" />
        </mxCell>
        <mxCell id="7-hsXSYyVSiEAsbIfiTc-22" style="edgeStyle=orthogonalEdgeStyle;rounded=0;orthogonalLoop=1;jettySize=auto;html=1;entryX=0.5;entryY=1;entryDx=0;entryDy=0;exitX=0.5;exitY=1;exitDx=0;exitDy=0;curved=1;" parent="1" source="7-hsXSYyVSiEAsbIfiTc-7" target="7-hsXSYyVSiEAsbIfiTc-8" edge="1">
          <mxGeometry relative="1" as="geometry">
            <Array as="points">
              <mxPoint x="1183" y="357" />
              <mxPoint x="1375" y="357" />
            </Array>
          </mxGeometry>
        </mxCell>
        <mxCell id="7-hsXSYyVSiEAsbIfiTc-23" style="edgeStyle=orthogonalEdgeStyle;rounded=0;orthogonalLoop=1;jettySize=auto;html=1;entryX=0.5;entryY=1;entryDx=0;entryDy=0;exitX=0.5;exitY=1;exitDx=0;exitDy=0;curved=1;" parent="1" source="7-hsXSYyVSiEAsbIfiTc-7" target="7-hsXSYyVSiEAsbIfiTc-2" edge="1">
          <mxGeometry relative="1" as="geometry">
            <Array as="points">
              <mxPoint x="1183" y="440" />
              <mxPoint x="223" y="440" />
            </Array>
          </mxGeometry>
        </mxCell>
        <mxCell id="7-hsXSYyVSiEAsbIfiTc-7" value="关闭" style="rounded=1;whiteSpace=wrap;html=1;fontSize=26;fillColor=#e1d5e7;strokeColor=#9673a6;" parent="1" vertex="1">
          <mxGeometry x="1123" y="260" width="120" height="60" as="geometry" />
        </mxCell>
        <mxCell id="7-hsXSYyVSiEAsbIfiTc-24" style="edgeStyle=orthogonalEdgeStyle;rounded=0;orthogonalLoop=1;jettySize=auto;html=1;entryX=0.5;entryY=0;entryDx=0;entryDy=0;exitX=0.5;exitY=0;exitDx=0;exitDy=0;curved=1;" parent="1" source="7-hsXSYyVSiEAsbIfiTc-8" target="7-hsXSYyVSiEAsbIfiTc-7" edge="1">
          <mxGeometry relative="1" as="geometry" />
        </mxCell>
        <mxCell id="7-hsXSYyVSiEAsbIfiTc-25" style="edgeStyle=orthogonalEdgeStyle;rounded=0;orthogonalLoop=1;jettySize=auto;html=1;entryX=1;entryY=0.5;entryDx=0;entryDy=0;exitX=1;exitY=0.5;exitDx=0;exitDy=0;curved=1;" parent="1" source="7-hsXSYyVSiEAsbIfiTc-8" target="7-hsXSYyVSiEAsbIfiTc-10" edge="1">
          <mxGeometry relative="1" as="geometry" />
        </mxCell>
        <mxCell id="7-hsXSYyVSiEAsbIfiTc-8" value="开启" style="rounded=1;whiteSpace=wrap;html=1;fontSize=26;fillColor=#b1ddf0;strokeColor=#10739e;" parent="1" vertex="1">
          <mxGeometry x="1315" y="260" width="120" height="60" as="geometry" />
        </mxCell>
        <mxCell id="7-hsXSYyVSiEAsbIfiTc-10" value="活动中" style="rounded=1;whiteSpace=wrap;html=1;fontSize=26;fillColor=#fad9d5;strokeColor=#ae4132;" parent="1" vertex="1">
          <mxGeometry x="739" y="526" width="120" height="60" as="geometry" />
        </mxCell>
        <mxCell id="7-hsXSYyVSiEAsbIfiTc-26" value="营销活动" style="rounded=1;whiteSpace=wrap;html=1;fontSize=22;" parent="1" vertex="1">
          <mxGeometry x="1588" y="266" width="120" height="60" as="geometry" />
        </mxCell>
        <mxCell id="7-hsXSYyVSiEAsbIfiTc-27" value="多级审核" style="rounded=1;whiteSpace=wrap;html=1;fontSize=22;" parent="1" vertex="1">
          <mxGeometry x="1585" y="366" width="120" height="60" as="geometry" />
        </mxCell>
        <mxCell id="7-hsXSYyVSiEAsbIfiTc-28" value="状态扭转" style="rounded=1;whiteSpace=wrap;html=1;fontSize=22;" parent="1" vertex="1">
          <mxGeometry x="1585" y="466" width="120" height="60" as="geometry" />
        </mxCell>
        <mxCell id="7-hsXSYyVSiEAsbIfiTc-29" value="流程控制" style="rounded=1;whiteSpace=wrap;html=1;fontSize=22;" parent="1" vertex="1">
          <mxGeometry x="1585" y="566" width="120" height="60" as="geometry" />
        </mxCell>
        <mxCell id="lHDCf4ek-rN3MF-EiJ6S-2" value="添加奖品配置" style="rounded=1;whiteSpace=wrap;html=1;fontSize=18;" vertex="1" parent="1">
          <mxGeometry x="-87" y="1429" width="120" height="60" as="geometry" />
        </mxCell>
        <mxCell id="lHDCf4ek-rN3MF-EiJ6S-1" value="添加活动配置" style="rounded=1;whiteSpace=wrap;html=1;fontSize=18;" vertex="1" parent="1">
          <mxGeometry x="-87" y="1306" width="120" height="60" as="geometry" />
        </mxCell>
        <mxCell id="lHDCf4ek-rN3MF-EiJ6S-3" value="抽奖策略配置" style="rounded=1;whiteSpace=wrap;html=1;fontSize=18;" vertex="1" parent="1">
          <mxGeometry x="-87" y="1552" width="120" height="60" as="geometry" />
        </mxCell>
        <mxCell id="lHDCf4ek-rN3MF-EiJ6S-4" value="策略明细配置" style="rounded=1;whiteSpace=wrap;html=1;fontSize=18;" vertex="1" parent="1">
          <mxGeometry x="-87" y="1675" width="120" height="60" as="geometry" />
        </mxCell>
        <mxCell id="lHDCf4ek-rN3MF-EiJ6S-17" style="edgeStyle=orthogonalEdgeStyle;rounded=0;orthogonalLoop=1;jettySize=auto;html=1;" edge="1" parent="1" source="lHDCf4ek-rN3MF-EiJ6S-7" target="lHDCf4ek-rN3MF-EiJ6S-8">
          <mxGeometry relative="1" as="geometry" />
        </mxCell>
        <mxCell id="lHDCf4ek-rN3MF-EiJ6S-21" style="edgeStyle=orthogonalEdgeStyle;rounded=0;orthogonalLoop=1;jettySize=auto;html=1;" edge="1" parent="1" source="lHDCf4ek-rN3MF-EiJ6S-7" target="lHDCf4ek-rN3MF-EiJ6S-11">
          <mxGeometry relative="1" as="geometry" />
        </mxCell>
        <mxCell id="lHDCf4ek-rN3MF-EiJ6S-7" value="参与活动" style="rounded=1;whiteSpace=wrap;html=1;fontSize=18;" vertex="1" parent="1">
          <mxGeometry x="364.5" y="1302" width="120" height="60" as="geometry" />
        </mxCell>
        <mxCell id="lHDCf4ek-rN3MF-EiJ6S-19" style="edgeStyle=orthogonalEdgeStyle;rounded=0;orthogonalLoop=1;jettySize=auto;html=1;" edge="1" parent="1" source="lHDCf4ek-rN3MF-EiJ6S-8" target="lHDCf4ek-rN3MF-EiJ6S-10">
          <mxGeometry relative="1" as="geometry" />
        </mxCell>
        <mxCell id="lHDCf4ek-rN3MF-EiJ6S-8" value="各种校验是否满足抽奖条件" style="rounded=1;whiteSpace=wrap;html=1;fontSize=18;" vertex="1" parent="1">
          <mxGeometry x="315" y="1435" width="219" height="64" as="geometry" />
        </mxCell>
        <mxCell id="lHDCf4ek-rN3MF-EiJ6S-9" value="领取活动&lt;br&gt;往 user_take_activity 添加记录" style="rounded=1;whiteSpace=wrap;html=1;fontSize=18;" vertex="1" parent="1">
          <mxGeometry x="283" y="1705" width="284.5" height="56" as="geometry" />
        </mxCell>
        <mxCell id="lHDCf4ek-rN3MF-EiJ6S-20" style="edgeStyle=orthogonalEdgeStyle;rounded=0;orthogonalLoop=1;jettySize=auto;html=1;" edge="1" parent="1" source="lHDCf4ek-rN3MF-EiJ6S-10" target="lHDCf4ek-rN3MF-EiJ6S-9">
          <mxGeometry relative="1" as="geometry" />
        </mxCell>
        <mxCell id="lHDCf4ek-rN3MF-EiJ6S-10" value="扣减活动库存" style="rounded=1;whiteSpace=wrap;html=1;fontSize=18;" vertex="1" parent="1">
          <mxGeometry x="364.5" y="1572" width="120" height="60" as="geometry" />
        </mxCell>
        <mxCell id="lHDCf4ek-rN3MF-EiJ6S-22" style="edgeStyle=orthogonalEdgeStyle;rounded=0;orthogonalLoop=1;jettySize=auto;html=1;" edge="1" parent="1" source="lHDCf4ek-rN3MF-EiJ6S-11" target="lHDCf4ek-rN3MF-EiJ6S-15">
          <mxGeometry relative="1" as="geometry" />
        </mxCell>
        <mxCell id="lHDCf4ek-rN3MF-EiJ6S-24" style="edgeStyle=orthogonalEdgeStyle;rounded=0;orthogonalLoop=1;jettySize=auto;html=1;" edge="1" parent="1" source="lHDCf4ek-rN3MF-EiJ6S-11" target="lHDCf4ek-rN3MF-EiJ6S-12">
          <mxGeometry relative="1" as="geometry" />
        </mxCell>
        <mxCell id="lHDCf4ek-rN3MF-EiJ6S-11" value="执行抽奖" style="rounded=1;whiteSpace=wrap;html=1;fontSize=18;" vertex="1" parent="1">
          <mxGeometry x="671.5" y="1302" width="120" height="60" as="geometry" />
        </mxCell>
        <mxCell id="lHDCf4ek-rN3MF-EiJ6S-25" style="edgeStyle=orthogonalEdgeStyle;rounded=0;orthogonalLoop=1;jettySize=auto;html=1;" edge="1" parent="1" source="lHDCf4ek-rN3MF-EiJ6S-12" target="lHDCf4ek-rN3MF-EiJ6S-13">
          <mxGeometry relative="1" as="geometry" />
        </mxCell>
        <mxCell id="lHDCf4ek-rN3MF-EiJ6S-12" value="抽奖策略初始化" style="rounded=1;whiteSpace=wrap;html=1;fontSize=18;" vertex="1" parent="1">
          <mxGeometry x="663" y="1432" width="137" height="57" as="geometry" />
        </mxCell>
        <mxCell id="lHDCf4ek-rN3MF-EiJ6S-13" value="执行抽奖算法" style="rounded=1;whiteSpace=wrap;html=1;fontSize=18;" vertex="1" parent="1">
          <mxGeometry x="671.5" y="1559" width="120" height="60" as="geometry" />
        </mxCell>
        <mxCell id="lHDCf4ek-rN3MF-EiJ6S-23" style="edgeStyle=orthogonalEdgeStyle;rounded=0;orthogonalLoop=1;jettySize=auto;html=1;" edge="1" parent="1" source="lHDCf4ek-rN3MF-EiJ6S-15" target="lHDCf4ek-rN3MF-EiJ6S-16">
          <mxGeometry relative="1" as="geometry" />
        </mxCell>
        <mxCell id="lHDCf4ek-rN3MF-EiJ6S-15" value="记录活动消耗&lt;br style=&quot;font-size: 18px;&quot;&gt;保存抽奖信息" style="rounded=1;whiteSpace=wrap;html=1;fontSize=18;" vertex="1" parent="1">
          <mxGeometry x="963" y="1302" width="120" height="60" as="geometry" />
        </mxCell>
        <mxCell id="lHDCf4ek-rN3MF-EiJ6S-16" value="发奖流程" style="rounded=1;whiteSpace=wrap;html=1;fontSize=18;" vertex="1" parent="1">
          <mxGeometry x="1201" y="1302" width="120" height="60" as="geometry" />
        </mxCell>
        <mxCell id="lHDCf4ek-rN3MF-EiJ6S-28" value="活动配置" style="rounded=1;whiteSpace=wrap;html=1;fontSize=18;" vertex="1" parent="1">
          <mxGeometry x="-156" y="1432" width="36" height="166" as="geometry" />
        </mxCell>
        <mxCell id="lHDCf4ek-rN3MF-EiJ6S-30" value="&lt;font style=&quot;font-size: 18px;&quot;&gt;抽奖流程&lt;/font&gt;" style="rounded=1;whiteSpace=wrap;html=1;" vertex="1" parent="1">
          <mxGeometry x="228" y="1415.5" width="34" height="199" as="geometry" />
        </mxCell>
      </root>
    </mxGraphModel>
  </diagram>
</mxfile>
